<?xml version="1.0" encoding="UTF-8" standalone="no"?><svg xmlns="http://www.w3.org/2000/svg" xmlns:xlink="http://www.w3.org/1999/xlink" clip-rule="evenodd" stroke-miterlimit="10" viewBox="0 0 1024 768"><desc>SVG generated by Keynote</desc><defs></defs><g transform="matrix(1.00, 0.00, -0.00, -1.00, 0.0, 768.0)"><path d="M 0.0 768.0 L 1024.0 768.0 L 1024.0 0.0 L 0.0 0.0 Z M 0.0 768.0 " fill="#000000"></path><path d="M 444.0 359.5 L 444.0 408.5 C 444.0 410.6 445.7 412.0 447.8 412.0 L 576.2 412.0 C 578.3 412.0 580.0 410.6 580.0 408.5 L 580.0 359.5 C 580.0 357.4 578.3 356.0 576.2 356.0 L 447.8 356.0 C 445.7 356.0 444.0 357.4 444.0 359.5 Z M 444.0 359.5 " fill="#4393C7"></path><g><clipPath id="clip0x600000ea56a0"><path d="M 443.8 355.7 L 580.2 355.7 L 580.2 412.3 L 443.8 412.3 Z M 443.8 355.7 "></path></clipPath><g clip-path="url(#clip0x600000ea56a0)"><text xml:space="preserve" font-family="HelveticaNeue-Bold,Helvetica Neue" font-weight="bold" font-size="14.0" fill="#FAFEFF" transform="matrix(1.00, 0.00, -0.00, -1.00, 453.0, 387.1)">C</text><text xml:space="preserve" font-family="HelveticaNeue-Bold,Helvetica Neue" font-weight="bold" font-size="14.0" fill="#FAFEFF" transform="matrix(1.00, 0.00, -0.00, -1.00, 463.4, 387.1)">l</text><text xml:space="preserve" font-family="HelveticaNeue-Bold,Helvetica Neue" font-weight="bold" font-size="14.0" fill="#FAFEFF" transform="matrix(1.00, 0.00, -0.00, -1.00, 467.0, 387.1)">i</text><text xml:space="preserve" font-family="HelveticaNeue-Bold,Helvetica Neue" font-weight="bold" font-size="14.0" fill="#FAFEFF" transform="matrix(1.00, 0.00, -0.00, -1.00, 470.6, 387.1)">c</text><text xml:space="preserve" font-family="HelveticaNeue-Bold,Helvetica Neue" font-weight="bold" font-size="14.0" fill="#FAFEFF" transform="matrix(1.00, 0.00, -0.00, -1.00, 478.7, 387.1)">k</text><text xml:space="preserve" font-family="HelveticaNeue-Bold,Helvetica Neue" font-weight="bold" font-size="14.0" fill="#FAFEFF" transform="matrix(1.00, 0.00, -0.00, -1.00, 486.7, 387.1)"> </text><text xml:space="preserve" font-family="HelveticaNeue-Bold,Helvetica Neue" font-weight="bold" font-size="14.0" fill="#FAFEFF" transform="matrix(1.00, 0.00, -0.00, -1.00, 490.6, 387.1)">p</text><text xml:space="preserve" font-family="HelveticaNeue-Bold,Helvetica Neue" font-weight="bold" font-size="14.0" fill="#FAFEFF" transform="matrix(1.00, 0.00, -0.00, -1.00, 499.2, 387.1)">e</text><text xml:space="preserve" font-family="HelveticaNeue-Bold,Helvetica Neue" font-weight="bold" font-size="14.0" fill="#FAFEFF" transform="matrix(1.00, 0.00, -0.00, -1.00, 507.2, 387.1)">r</text><text xml:space="preserve" font-family="HelveticaNeue-Bold,Helvetica Neue" font-weight="bold" font-size="14.0" fill="#FAFEFF" transform="matrix(1.00, 0.00, -0.00, -1.00, 512.6, 387.1)"> </text><text xml:space="preserve" font-family="HelveticaNeue-Bold,Helvetica Neue" font-weight="bold" font-size="14.0" fill="#FAFEFF" transform="matrix(1.00, 0.00, -0.00, -1.00, 516.5, 387.1)">a</text><text xml:space="preserve" font-family="HelveticaNeue-Bold,Helvetica Neue" font-weight="bold" font-size="14.0" fill="#FAFEFF" transform="matrix(1.00, 0.00, -0.00, -1.00, 524.6, 387.1)">p</text><text xml:space="preserve" font-family="HelveticaNeue-Bold,Helvetica Neue" font-weight="bold" font-size="14.0" fill="#FAFEFF" transform="matrix(1.00, 0.00, -0.00, -1.00, 533.1, 387.1)">r</text><text xml:space="preserve" font-family="HelveticaNeue-Bold,Helvetica Neue" font-weight="bold" font-size="14.0" fill="#FAFEFF" transform="matrix(1.00, 0.00, -0.00, -1.00, 538.6, 387.1)">i</text><text xml:space="preserve" font-family="HelveticaNeue-Bold,Helvetica Neue" font-weight="bold" font-size="14.0" fill="#FAFEFF" transform="matrix(1.00, 0.00, -0.00, -1.00, 542.2, 387.1)">r</text><text xml:space="preserve" font-family="HelveticaNeue-Bold,Helvetica Neue" font-weight="bold" font-size="14.0" fill="#FAFEFF" transform="matrix(1.00, 0.00, -0.00, -1.00, 547.4, 387.1)">e</text><text xml:space="preserve" font-family="HelveticaNeue-Bold,Helvetica Neue" font-weight="bold" font-size="14.0" fill="#FAFEFF" transform="matrix(1.00, 0.00, -0.00, -1.00, 555.4, 387.1)"> </text><text xml:space="preserve" font-family="HelveticaNeue-Bold,Helvetica Neue" font-weight="bold" font-size="14.0" fill="#FAFEFF" transform="matrix(1.00, 0.00, -0.00, -1.00, 559.3, 387.1)">l</text><text xml:space="preserve" font-family="HelveticaNeue-Bold,Helvetica Neue" font-weight="bold" font-size="14.0" fill="#FAFEFF" transform="matrix(1.00, 0.00, -0.00, -1.00, 562.9, 387.1)">a</text><text xml:space="preserve" font-family="HelveticaNeue-Bold,Helvetica Neue" font-weight="bold" font-size="14.0" fill="#FAFEFF" transform="matrix(1.00, 0.00, -0.00, -1.00, 571.0, 387.1)"> </text><text xml:space="preserve" font-family="HelveticaNeue-Bold,Helvetica Neue" font-weight="bold" font-size="14.0" fill="#FAFEFF" transform="matrix(1.00, 0.00, -0.00, -1.00, 468.0, 370.1)">p</text><text xml:space="preserve" font-family="HelveticaNeue-Bold,Helvetica Neue" font-weight="bold" font-size="14.0" fill="#FAFEFF" transform="matrix(1.00, 0.00, -0.00, -1.00, 476.5, 370.1)">r</text><text xml:space="preserve" font-family="HelveticaNeue-Bold,Helvetica Neue" font-weight="bold" font-size="14.0" fill="#FAFEFF" transform="matrix(1.00, 0.00, -0.00, -1.00, 482.0, 370.1)">i</text><text xml:space="preserve" font-family="HelveticaNeue-Bold,Helvetica Neue" font-weight="bold" font-size="14.0" fill="#FAFEFF" transform="matrix(1.00, 0.00, -0.00, -1.00, 485.6, 370.1)">m</text><text xml:space="preserve" font-family="HelveticaNeue-Bold,Helvetica Neue" font-weight="bold" font-size="14.0" fill="#FAFEFF" transform="matrix(1.00, 0.00, -0.00, -1.00, 498.3, 370.1)">a</text><text xml:space="preserve" font-family="HelveticaNeue-Bold,Helvetica Neue" font-weight="bold" font-size="14.0" fill="#FAFEFF" transform="matrix(1.00, 0.00, -0.00, -1.00, 506.3, 370.1)"> </text><text xml:space="preserve" font-family="HelveticaNeue-Bold,Helvetica Neue" font-weight="bold" font-size="14.0" fill="#FAFEFF" transform="matrix(1.00, 0.00, -0.00, -1.00, 510.2, 370.1)">m</text><text xml:space="preserve" font-family="HelveticaNeue-Bold,Helvetica Neue" font-weight="bold" font-size="14.0" fill="#FAFEFF" transform="matrix(1.00, 0.00, -0.00, -1.00, 522.9, 370.1)">a</text><text xml:space="preserve" font-family="HelveticaNeue-Bold,Helvetica Neue" font-weight="bold" font-size="14.0" fill="#FAFEFF" transform="matrix(1.00, 0.00, -0.00, -1.00, 530.9, 370.1)">p</text><text xml:space="preserve" font-family="HelveticaNeue-Bold,Helvetica Neue" font-weight="bold" font-size="14.0" fill="#FAFEFF" transform="matrix(1.00, 0.00, -0.00, -1.00, 539.5, 370.1)">p</text><text xml:space="preserve" font-family="HelveticaNeue-Bold,Helvetica Neue" font-weight="bold" font-size="14.0" fill="#FAFEFF" transform="matrix(1.00, 0.00, -0.00, -1.00, 548.0, 370.1)">a</text></g></g></g></svg>